<svg width="24" height="24" viewBox="0 0 24 24" fill="none" xmlns="http://www.w3.org/2000/svg">
<g>
	<path class="st0" d="M20.1,15.9c0.2,0.2,0.4,0.3,0.7,0.3c0,0,0,0,0,0c0.3,0,0.5-0.1,0.7-0.4c0.9-1,1.6-2.2,2.3-3.4
		c0.2-0.3,0.2-0.6,0-0.9C23.7,11.2,19.5,3,12,3c-0.8,0-1.6,0.1-2.3,0.3C9.3,3.3,9,3.6,8.9,4s0,0.7,0.3,1L20.1,15.9z M21.9,12
		c-0.3,0.6-0.7,1.1-1.1,1.7L12.1,5C17.4,5,20.9,10.4,21.9,12z"/>
	<path class="st0" d="M23.7,22.3l-5.1-5.1l-3.8-3.8c0,0,0,0,0,0l-4.2-4.2c0,0,0,0,0,0L6.8,5.4L1.7,0.3c-0.4-0.4-1-0.4-1.4,0
		s-0.4,1,0,1.4L4.6,6c-1.8,1.6-3.3,3.4-4.5,5.5c-0.2,0.3-0.2,0.6,0,0.9C0.3,12.8,4.5,21,12,21c2.1,0,4.1-0.6,5.8-1.8l4.5,4.5
		c0.2,0.2,0.5,0.3,0.7,0.3s0.5-0.1,0.7-0.3C24.1,23.3,24.1,22.7,23.7,22.3z M12.6,14c-0.2,0.1-0.4,0.1-0.6,0.1c-0.3,0-0.5,0-0.8-0.1
		c-0.2-0.1-0.5-0.2-0.7-0.4c-0.2-0.2-0.3-0.4-0.4-0.7S9.9,12.3,9.9,12c0-0.2,0-0.4,0.1-0.6L12.6,14z M12,19c-5.4,0-8.9-5.4-9.9-7
		c1-1.8,2.3-3.3,3.8-4.6L8.5,10c-0.1,0.2-0.2,0.3-0.3,0.5c-0.2,0.5-0.3,1-0.3,1.6c0,0.5,0.1,1.1,0.3,1.6c0.2,0.5,0.5,0.9,0.9,1.3
		s0.8,0.7,1.3,0.9c0.5,0.2,1,0.3,1.6,0.3c0.5,0,1.1-0.1,1.6-0.3c0.2-0.1,0.3-0.2,0.5-0.3l2.3,2.3C15,18.6,13.5,19,12,19z"/>
</g>
</svg>
