<svg width="24" height="24" viewBox="0 0 24 24" fill="none" xmlns="http://www.w3.org/2000/svg">
<path fill="#747e7f" d="M19 2.998H5C4.46957 2.998 3.96086 3.20871 3.58579 3.58379C3.21071 3.95886 3 4.46757 3 4.998V18.998C3 19.5284 3.21071 20.0371 3.58579 20.4122C3.96086 20.7873 4.46957 20.998 5 20.998H19C19.5304 20.998 20.0391 20.7873 20.4142 20.4122C20.7893 20.0371 21 19.5284 21 18.998V4.998C21 4.46757 20.7893 3.95886 20.4142 3.58379C20.0391 3.20871 19.5304 2.998 19 2.998ZM19 4.998V18.998L5 19V5H19V4.998Z" />
</svg>
