<svg version="1.1" xmlns="http://www.w3.org/2000/svg" xmlns:xlink="http://www.w3.org/1999/xlink" x="0px" y="0px" width="100%" height="100%" viewBox="0 0 24 24" enable-background="new 0 0 24 24" xml:space="preserve" fit="" preserveAspectRatio="xMidYMid meet" focusable="false">
<path fill="none" d="M0,0h24v24H0V0z"></path>
<path fill="white" d="M12,8.479c-3.571,0-6.459,1.574-6.459,3.521c0,1.947,2.888,3.521,6.459,3.521c3.57,0,6.459-1.574,6.459-3.521
	C18.459,10.053,15.57,8.479,12,8.479z M12,14.229c-2.857,0-5.167-0.996-5.167-2.228c0-1.233,2.31-2.229,5.167-2.229
	c2.856,0,5.167,0.996,5.167,2.229C17.167,13.232,14.856,14.229,12,14.229z"></path>
</svg>
